<svg width="113" height="113" viewBox="0 0 113 113" fill="none" xmlns="http://www.w3.org/2000/svg">
<path d="M27.5438 80.5123C31.5459 77.4519 36.0188 75.0389 40.9626 73.2733C45.9063 71.5076 51.0855 70.6248 56.5001 70.6248C61.9147 70.6248 67.0938 71.5076 72.0376 73.2733C76.9813 75.0389 81.4542 77.4519 85.4563 80.5123C88.2029 77.295 90.3412 73.646 91.8714 69.5655C93.4016 65.4849 94.1667 61.1297 94.1667 56.4998C94.1667 46.063 90.4982 37.1761 83.161 29.8389C75.8239 22.5017 66.9369 18.8332 56.5001 18.8332C46.0633 18.8332 37.1763 22.5017 29.8391 29.8389C22.502 37.1761 18.8334 46.063 18.8334 56.4998C18.8334 61.1297 19.5985 65.4849 21.1287 69.5655C22.6589 73.646 24.7973 77.295 27.5438 80.5123ZM56.5001 61.2082C51.8702 61.2082 47.9662 59.6191 44.7881 56.441C41.61 53.2629 40.0209 49.3589 40.0209 44.729C40.0209 40.0991 41.61 36.1952 44.7881 33.017C47.9662 29.8389 51.8702 28.2498 56.5001 28.2498C61.1299 28.2498 65.0339 29.8389 68.2121 33.017C71.3902 36.1952 72.9792 40.0991 72.9792 44.729C72.9792 49.3589 71.3902 53.2629 68.2121 56.441C65.0339 59.6191 61.1299 61.2082 56.5001 61.2082ZM56.5001 103.583C49.9869 103.583 43.8661 102.347 38.1376 99.8754C32.4091 97.4035 27.4261 94.0488 23.1886 89.8113C18.9511 85.5738 15.5964 80.5908 13.1246 74.8623C10.6527 69.1339 9.41675 63.013 9.41675 56.4998C9.41675 49.9866 10.6527 43.8658 13.1246 38.1373C15.5964 32.4089 18.9511 27.4259 23.1886 23.1884C27.4261 18.9509 32.4091 15.5962 38.1376 13.1243C43.8661 10.6524 49.9869 9.4165 56.5001 9.4165C63.0133 9.4165 69.1341 10.6524 74.8626 13.1243C80.5911 15.5962 85.574 18.9509 89.8115 23.1884C94.049 27.4259 97.4037 32.4089 99.8756 38.1373C102.347 43.8658 103.583 49.9866 103.583 56.4998C103.583 63.013 102.347 69.1339 99.8756 74.8623C97.4037 80.5908 94.049 85.5738 89.8115 89.8113C85.574 94.0488 80.5911 97.4035 74.8626 99.8754C69.1341 102.347 63.0133 103.583 56.5001 103.583ZM56.5001 94.1665C60.6591 94.1665 64.5827 93.5583 68.2709 92.342C71.9591 91.1257 75.3334 89.3797 78.3938 87.104C75.3334 84.8283 71.9591 83.0823 68.2709 81.866C64.5827 80.6497 60.6591 80.0415 56.5001 80.0415C52.3411 80.0415 48.4174 80.6497 44.7292 81.866C41.0411 83.0823 37.6667 84.8283 34.6063 87.104C37.6667 89.3797 41.0411 91.1257 44.7292 92.342C48.4174 93.5583 52.3411 94.1665 56.5001 94.1665ZM56.5001 51.7915C58.5404 51.7915 60.2275 51.1245 61.5615 49.7905C62.8956 48.4564 63.5626 46.7693 63.5626 44.729C63.5626 42.6887 62.8956 41.0016 61.5615 39.6675C60.2275 38.3335 58.5404 37.6665 56.5001 37.6665C54.4598 37.6665 52.7727 38.3335 51.4386 39.6675C50.1046 41.0016 49.4376 42.6887 49.4376 44.729C49.4376 46.7693 50.1046 48.4564 51.4386 49.7905C52.7727 51.1245 54.4598 51.7915 56.5001 51.7915Z" fill="#F5F1C2"/>
</svg>
