<svg width="67" height="63" viewBox="0 0 67 63" fill="none" xmlns="http://www.w3.org/2000/svg">
<path d="M11.1666 52.5C9.63117 52.5 8.31676 51.9859 7.22336 50.9578C6.12995 49.9297 5.58325 48.6937 5.58325 47.25V15.75C5.58325 14.3062 6.12995 13.0703 7.22336 12.0422C8.31676 11.0141 9.63117 10.5 11.1666 10.5H44.6666C46.202 10.5 47.5164 11.0141 48.6098 12.0422C49.7032 13.0703 50.2499 14.3062 50.2499 15.75V27.5625L61.4166 17.0625V45.9375L50.2499 35.4375V47.25C50.2499 48.6937 49.7032 49.9297 48.6098 50.9578C47.5164 51.9859 46.202 52.5 44.6666 52.5H11.1666ZM11.1666 47.25H44.6666V15.75H11.1666V47.25Z" fill="#9CB3D7"/>
</svg>
